<svg width="54" height="54" viewBox="0 0 54 54" fill="none" xmlns="http://www.w3.org/2000/svg">
<path fill-rule="evenodd" clip-rule="evenodd" d="M50.064 16.2692C54.3573 11.9599 54.1733 6.30119 50.968 2.83452C50.1614 1.96238 49.1871 1.26201 48.1035 0.775387C47.0198 0.288762 45.849 0.0258904 44.6613 0.00252002C42.1307 -0.0561466 39.512 0.909186 37.0933 2.93319C37.0313 2.98465 36.9717 3.03893 36.9147 3.09585L2.33067 37.8185C0.836469 39.3193 -0.00166966 41.3514 2.49727e-06 43.4692V47.9838C2.49727e-06 50.9198 2.37867 53.3358 5.344 53.3358H9.82134C10.8744 53.3356 11.917 53.1275 12.8894 52.7234C13.8618 52.3194 14.7449 51.7273 15.488 50.9812L50.064 16.2692ZM40.552 10.1172C40.306 9.86249 40.0118 9.65934 39.6864 9.51958C39.3611 9.37982 39.0112 9.30626 38.6571 9.30318C38.303 9.30011 37.9519 9.36758 37.6241 9.50166C37.2964 9.63574 36.9987 9.83375 36.7483 10.0841C36.4979 10.3345 36.2999 10.6323 36.1658 10.96C36.0317 11.2877 35.9643 11.6388 35.9673 11.9929C35.9704 12.347 36.044 12.6969 36.1837 13.0223C36.3235 13.3476 36.5266 13.6419 36.7813 13.8879L39.448 16.5545C39.694 16.8092 39.9882 17.0124 40.3136 17.1521C40.6389 17.2919 40.9889 17.3654 41.3429 17.3685C41.697 17.3716 42.0482 17.3041 42.3759 17.17C42.7036 17.036 43.0013 16.838 43.2517 16.5876C43.5021 16.3372 43.7001 16.0395 43.8342 15.7117C43.9683 15.384 44.0357 15.0329 44.0327 14.6788C44.0296 14.3247 43.956 13.9748 43.8163 13.6494C43.6765 13.3241 43.4734 13.0298 43.2187 12.7839L40.552 10.1172Z" fill="white"/>
</svg>
